<?xml version="1.0" encoding="UTF-8"?>
<svg version="1.1" xmlns="http://www.w3.org/2000/svg" width="512" height="512">
<path d="M0 0 C3.42996779 0.26292436 4.71131734 0.68408312 7.0703125 3.265625 C7.74835937 4.25046875 8.42640625 5.2353125 9.125 6.25 C9.90926565 7.35275421 10.69716944 8.45292809 11.48828125 9.55078125 C11.89771973 10.12135254 12.3071582 10.69192383 12.72900391 11.27978516 C20.01050524 21.13484824 28.58757415 30.11541671 37 39 C37.70898438 39.75152344 38.41796875 40.50304687 39.1484375 41.27734375 C59.47740975 62.22863148 85.84004153 77.75107709 110.93212891 92.22412109 C115.72132772 94.99641396 120.48721357 97.8076368 125.25 100.625 C126.14855713 101.15609375 127.04711426 101.6871875 127.97290039 102.234375 C135.00392495 106.39638537 142.0110573 110.59767504 149.00244141 114.82592773 C153.24320332 117.38224298 157.51147584 119.85085534 161.859375 122.21972656 C181.5242899 132.99844928 191.54977358 149.13969328 198 170 C198 170.66 198 171.32 198 172 C204.92143461 169.01662301 209.59782276 165.79528966 213.03515625 158.93359375 C215.2729218 153.11540331 215.8600637 147.17334613 215 141 C213.32202841 137.45761552 212.10922633 135.69722798 208.8125 133.625 C205.43862113 132.87524914 202.33375496 132.89623119 198.890625 133.02734375 C197 133 197 133 196 132 C195.62625313 128.11303254 195.61158767 125.71208928 197.5 122.25 C200.73662519 119.33703733 203.88279388 118.25029277 208 117 C212.32385909 115.66371454 212.32385909 115.66371454 216.23046875 113.46484375 C222.27643124 110.26704977 230.51411989 111.335601 237.07421875 112.5859375 C245.20121397 115.11330549 251.54865922 120.16081849 256.4765625 127.0703125 C259.7676529 133.67617021 259.39419363 141.00335718 259.56640625 148.22045898 C259.78215007 155.06113167 260.89059302 160.82457312 264 167 C264.66 167 265.32 167 266 167 C266.3403125 166.06800781 266.680625 165.13601562 267.03125 164.17578125 C270.45276618 155.07416378 274.48281276 147.05666649 280 139 C280.45761719 138.31292969 280.91523438 137.62585938 281.38671875 136.91796875 C285.3943381 131.58651118 291.04792973 128.62292084 296.73339844 125.32568359 C300.41934415 123.16985796 304.06872377 120.95353373 307.72509766 118.74804688 C322.63801408 109.76266905 337.57117968 100.79820026 352.6953125 92.171875 C363.79225135 85.8398837 374.69610986 79.57391925 385 72 C386.18583306 71.15780423 387.37342547 70.31808175 388.5625 69.48046875 C407.76659022 55.93645118 425.86449765 41.07573239 441 23 C441.77988281 22.08605469 442.55976563 21.17210938 443.36328125 20.23046875 C448.32274938 14.36791082 452.91608814 8.43038958 457.11328125 1.984375 C459 0 459 0 461.73046875 -0.296875 C462.47941406 -0.19890625 463.22835938 -0.1009375 464 0 C463.43472913 5.61431886 462.37603983 10.6576658 460.63671875 16.015625 C460.28683647 17.12124786 460.28683647 17.12124786 459.92988586 18.24920654 C459.18891147 20.58492797 458.43831134 22.91742457 457.6875 25.25 C457.19534411 26.79798028 456.70380297 28.34615615 456.21289062 29.89453125 C455.03539386 33.60108264 453.84348484 37.30276983 452.64447021 41.00241089 C452.05354261 42.83404022 451.47279332 44.66894519 450.89306641 46.50415039 C449.0393557 52.27603445 447.0103876 57.66845405 444 62.9375 C443.61900146 63.60644287 443.23800293 64.27538574 442.84545898 64.96459961 C440.01024724 69.73216503 436.79741705 73.96580816 433.0625 78.0625 C432.60939453 78.56193115 432.15628906 79.0613623 431.68945312 79.57592773 C424.35499184 87.19728988 415.08446404 92.24817278 405.8125 97.125 C403.67621024 98.26659684 401.54081449 99.409868 399.40625 100.5546875 C398.33375 101.12928711 397.26125 101.70388672 396.15625 102.29589844 C381.76794908 110.06433442 367.6711145 118.3468772 353.58917236 126.65267944 C342.20028795 133.36441209 330.66441976 139.77788036 319 146 C329.34843057 141.23666423 339.60380001 136.30533173 349.79833984 131.22094727 C352.12707671 130.061466 354.45996262 128.91062733 356.79296875 127.75976562 C364.75172137 123.80814757 372.40685598 119.66506852 379.92089844 114.91381836 C385.18096097 111.64442174 390.62891572 108.71858656 396.0625 105.75 C405.49594584 100.57657524 414.80373685 95.24424181 423.90844727 89.50488281 C425.03464478 88.80830566 425.03464478 88.80830566 426.18359375 88.09765625 C427.15123657 87.48676147 427.15123657 87.48676147 428.13842773 86.86352539 C430 86 430 86 434 86 C433.45779386 90.54218388 432.29093131 93.78229595 430.04296875 97.75390625 C429.4308252 98.84582275 428.81868164 99.93773926 428.18798828 101.06274414 C427.52164017 102.22960442 426.85479987 103.39618375 426.1875 104.5625 C425.50445077 105.76846213 424.8220025 106.97476482 424.14013672 108.18139648 C422.75939418 110.62212953 421.37346219 113.05982353 419.98486328 115.49609375 C418.1756532 118.67819487 416.40895593 121.88226843 414.65234375 125.09375 C400.45763955 150.89043614 400.45763955 150.89043614 385 156 C377.74872229 157.76741589 370.37084024 158.86511204 363 160 C359.95691238 160.49150994 356.91592962 160.99533508 353.875 161.5 C352.80161377 161.67523193 352.80161377 161.67523193 351.70654297 161.85400391 C343.61208221 163.19191634 335.5791556 164.83329262 327.54312134 166.4813385 C324.93166509 167.01393669 322.31867489 167.53831571 319.70507812 168.06030273 C318.81953247 168.23722153 317.93398682 168.41414032 317.02160645 168.59642029 C316.35447632 168.72960159 315.68734619 168.8627829 315 169 C321.82475214 168.2275327 328.64830234 167.44500138 335.47119141 166.65625 C337.78051112 166.39039224 340.09007406 166.12663674 342.39990234 165.86523438 C358.36122011 164.05698051 374.18376633 161.81282653 390 159 C390.61328125 160.86328125 390.61328125 160.86328125 391 163 C389.40870763 164.92052528 387.87422639 166.37401552 386 168 C385.28199219 168.66128906 384.56398438 169.32257813 383.82421875 170.00390625 C378.65538301 174.74406662 373.33249561 179.25304332 367.875 183.65625 C365.83091668 185.32262227 363.8140989 187.0030938 361.8125 188.71875 C361.28060059 189.17193604 360.74870117 189.62512207 360.20068359 190.09204102 C358.70582291 191.3684862 357.21604275 192.65087423 355.7265625 193.93359375 C349.18129611 198.89411799 341.9473549 199.04227605 334 198 C328.0513293 196.69371227 322.34426612 194.56200554 316.625 192.5 C315.09964682 191.96807365 313.57360673 191.43811288 312.046875 190.91015625 C308.35629548 189.6292259 304.67595144 188.32229389 301 187 C304.49970093 189.81333581 304.49970093 189.81333581 308.0703125 192.53515625 C327.81393375 207.21149828 327.81393375 207.21149828 329.46875 218.078125 C329.59413595 230.8047987 324.6808648 237.59896751 316.55078125 246.98828125 C314.17958289 249.78796569 312.00817739 252.64191761 309.875 255.625 C307.20286752 259.34110327 304.52499725 263.04723607 301.75 266.6875 C301.12609375 267.51636719 300.5021875 268.34523438 299.859375 269.19921875 C298 271 298 271 294 271 C294.144375 269.99324219 294.28875 268.98648437 294.4375 267.94921875 C297.93290419 242.14536826 296.48111167 217.59192662 282 195 C280.38333928 192.95065193 278.7047783 190.97834914 277 189 C277.43570312 189.87398437 277.87140625 190.74796875 278.3203125 191.6484375 C287.65012357 210.75597488 295.79013156 231.71426618 290.0703125 253.06640625 C288.61810188 257.04673535 286.53186901 260.38304427 284.109375 263.84375 C282.8256052 265.88885394 282.8256052 265.88885394 283.1171875 267.96875 C291.15752121 286.46863288 310.41997474 300.44094955 327.61572266 309.60205078 C329.73828125 310.7734375 329.73828125 310.7734375 333 313 C333 314.32 333 315.64 333 317 C328.72940439 317.11765973 324.45923403 317.18773631 320.1875 317.25 C318.99189453 317.28351563 317.79628906 317.31703125 316.56445312 317.3515625 C306.81040111 317.45787369 297.08358989 316.07472781 289.73828125 309.0625 C281.71766787 299.54590704 276.31832386 288.15833616 271 277 C274.72653891 294.81885273 287.56561142 311.97154896 300.1027832 324.68823242 C304.65178125 329.36981958 304.65178125 329.36981958 305 333 C299.82372457 335.58813772 293.75374075 333.74459861 288.55078125 332.0234375 C277.73654527 327.68449443 272.4979642 319.88792837 267.8125 309.5 C264.86408043 301.66307526 263.5821415 293.1968395 262 285 C260.98425453 285.94335256 259.97821837 286.897169 258.9765625 287.85546875 C258.41533691 288.38551514 257.85411133 288.91556152 257.27587891 289.46166992 C256.85483887 289.96931885 256.43379883 290.47696777 256 291 C256.27206865 292.6777567 256.61500109 294.34450469 257 296 C256.16413429 298.37112927 255.1238606 300.56479871 254.0078125 302.81640625 C251.26162968 308.76646903 251.26073803 314.52330587 253.4375 320.6875 C256.25941969 327.20948921 260.50307158 332.54833908 265 338 C265.83789062 339.01578125 266.67578125 340.0315625 267.5390625 341.078125 C275.35503781 350.21696107 284.56401581 356.57637395 294.671875 362.9609375 C295.45353027 363.457146 296.23518555 363.95335449 297.04052734 364.46459961 C298.57518385 365.43286804 300.11705994 366.38980395 301.66650391 367.33422852 C303.49535925 368.47837567 305.25561741 369.73078216 307 371 C307 371.99 307 372.98 307 374 C302.58369387 374.14724041 298.16803216 374.23471774 293.75 374.3125 C292.51507813 374.35439453 291.28015625 374.39628906 290.0078125 374.43945312 C279.18287475 374.58188652 270.44002826 372.393518 262.25 365.0625 C251.13427189 352.90153163 241.68205686 332.94223921 241.75 316.5 C241.74226563 314.62828125 241.74226563 314.62828125 241.734375 312.71875 C242.01407445 308.80295775 242.79365824 305.7147667 244 302 C241.36 304.31 238.72 306.62 236 309 C235.34 308.67 234.68 308.34 234 308 C234.6229216 303.00673958 236.8441591 299.00009904 239.0625 294.5625 C249.55439418 272.90154388 256.3542077 250.0273709 260.3125 226.3125 C260.47202148 225.37688232 260.63154297 224.44126465 260.79589844 223.47729492 C262.30461327 213.70978182 262.6011642 203.86217717 263 194 C262.75245468 194.82589127 262.50490936 195.65178253 262.24986267 196.50270081 C259.88322558 204.3982518 257.5161133 212.29366014 255.14850521 220.18892002 C253.93216848 224.24509388 252.71599716 228.30131716 251.50024414 232.35766602 C251.26531942 233.14140909 251.03039471 233.92515217 250.78835106 234.73264503 C250.31691671 236.3055228 249.8455737 237.87842794 249.37432289 239.4513607 C248.21549049 243.31799991 247.05404511 247.18381874 245.88705444 251.04800415 C243.84577864 257.8118384 241.82347558 264.57736056 239.89501953 271.37451172 C239.58141983 272.46062241 239.26782013 273.54673309 238.94471741 274.66575623 C238.3770913 276.63628988 237.8224723 278.61063778 237.28367615 280.58924866 C237.03738968 281.43498947 236.79110321 282.28073029 236.53735352 283.15209961 C236.23330345 284.24173256 236.23330345 284.24173256 235.92311096 285.3533783 C235 287 235 287 232.90391541 287.74049377 C232.27562332 287.82613083 231.64733124 287.91176788 231 288 C228.60923028 285.09279704 227.30414519 282.51216706 226.15234375 278.9375 C225.80284668 277.85863525 225.45334961 276.77977051 225.09326172 275.66821289 C224.52115967 273.85244751 224.52115967 273.85244751 223.9375 272 C223.52364503 270.70368037 223.10974333 269.40737565 222.69580078 268.11108398 C214.78975044 243.1832081 207.46200844 218.06354344 200 193 C200.44794956 203.47433659 200.93084105 213.83474579 202.6875 224.1875 C202.94805176 225.75141479 202.94805176 225.75141479 203.21386719 227.34692383 C207.57717661 252.48888746 215.09515651 275.97698022 226.58276367 298.76586914 C227.04142822 299.68360107 227.50009277 300.60133301 227.97265625 301.546875 C228.38781494 302.35995117 228.80297363 303.17302734 229.23071289 304.01074219 C229.48457764 304.66719727 229.73844238 305.32365234 230 306 C229.67 306.66 229.34 307.32 229 308 C225.60807637 307.40716379 223.7892243 306.23256811 221.25 303.9375 C220.63640625 303.38964844 220.0228125 302.84179688 219.390625 302.27734375 C218.70226562 301.64505859 218.70226562 301.64505859 218 301 C218.433125 302.03447266 218.433125 302.03447266 218.875 303.08984375 C224.1337104 316.40095445 221.46072197 327.21768625 216.10693359 340.15869141 C210.22145956 353.38953084 202.90491799 367.08301362 189 373 C185.08296976 373.98694503 181.41848593 374.11606615 177.38671875 374.09765625 C176.13955078 374.09443359 174.89238281 374.09121094 173.60742188 374.08789062 C171.66706055 374.07532227 171.66706055 374.07532227 169.6875 374.0625 C167.71813477 374.05573242 167.71813477 374.05573242 165.70898438 374.04882812 C162.4726099 374.03705949 159.23632822 374.0206176 156 374 C156.5825716 370.829269 156.71148197 370.21075161 159.44921875 368.2109375 C160.51785156 367.60507812 161.58648437 366.99921875 162.6875 366.375 C163.87997291 365.67459026 165.06999877 364.97000117 166.2578125 364.26171875 C166.8755957 363.89353027 167.49337891 363.5253418 168.12988281 363.14599609 C184.88469911 352.87874966 204.80898398 337.56181395 210.6015625 317.96484375 C212.15833976 310.28779509 210.08314506 304.93867427 207.09375 297.85546875 C206 295 206 295 206 292 C206.66 291.67 207.32 291.34 208 291 C206.68 290.34 205.36 289.68 204 289 C203.76925781 290.08796875 203.53851563 291.1759375 203.30078125 292.296875 C200.04523708 307.17523831 196.31828028 321.01016081 183 330 C176.04227813 333.3546159 170.58677597 334.12858942 163 334 C162.265625 332.23828125 162.265625 332.23828125 162 330 C163.484375 328.16796875 163.484375 328.16796875 165.75 326.1875 C179.11827096 313.50424914 189.62436009 296.20461624 196 279 C195.34 279 194.68 279 194 279 C193.87818359 279.99966797 193.87818359 279.99966797 193.75390625 281.01953125 C192.75508297 284.96824714 190.95075242 288.1673246 188.9375 291.6875 C188.33240601 292.74771362 188.33240601 292.74771362 187.71508789 293.8293457 C181.71270394 304.13275227 175.32225843 313.33698259 163.29467773 316.61621094 C157.94817165 317.51042389 152.46494037 317.19865676 147.0625 317.125 C145.80630859 317.11597656 144.55011719 317.10695313 143.25585938 317.09765625 C140.17037478 317.07419249 137.08528795 317.04136201 134 317 C134.29931641 314.63378906 134.29931641 314.63378906 135 312 C137.46174557 310.35883629 139.74456585 309.05270822 142.375 307.75 C149.67191453 303.90191629 155.80871061 299.48081356 162 294 C162.70382813 293.42765625 163.40765625 292.8553125 164.1328125 292.265625 C171.59512483 286.12019132 178.08598964 278.33245235 183 270 C183 269.34 183 268.68 183 268 C182.278125 267.319375 181.55625 266.63875 180.8125 265.9375 C173.17702263 258.41048112 171.4256247 249.47452011 171 239 C171.5137711 223.73602621 176.79805012 207.86318208 183 194 C169.35292529 213.42083709 164.30379921 235.58231802 168 259.0625 C168.185625 260.06410156 168.37125 261.06570313 168.5625 262.09765625 C169.01625968 265.10786553 169.072261 267.96052182 169 271 C167.68 271 166.36 271 165 271 C163.21808716 269.09383813 161.75541428 267.29507999 160.25 265.1875 C159.81171875 264.59582031 159.3734375 264.00414062 158.921875 263.39453125 C157.60130447 261.60561885 156.29875869 259.80478831 155 258 C154.31421875 257.05769531 153.6284375 256.11539062 152.921875 255.14453125 C151.63735536 253.37701133 150.3574222 251.60614942 149.08203125 249.83203125 C147.54375265 247.73962602 145.98583867 245.68161875 144.38671875 243.63671875 C143.93876953 243.06308594 143.49082031 242.48945313 143.02929688 241.8984375 C142.1615237 240.79193197 141.28940516 239.68881458 140.41210938 238.58984375 C134.55037642 231.11401042 132.96817567 225.37344029 134 216 C136.36266915 205.51205403 148.24827405 196.93124815 156.75 191.25 C158.49080573 190.15195331 160.23733384 189.06260017 162 188 C160.2559793 188.50723374 158.51209515 189.01494043 156.76879883 189.5246582 C155.2379932 189.97189131 153.70656338 190.41699269 152.17456055 190.86010742 C148.3516077 191.97505369 144.55954474 193.12880492 140.80078125 194.4453125 C131.54952924 197.65078032 121.54144327 200.58914268 112.01953125 196.8203125 C108.43098786 194.65697328 105.43252687 192.15564632 102.3125 189.375 C101.07247931 188.29067698 99.83158483 187.20735245 98.58984375 186.125 C97.6769458 185.32642578 97.6769458 185.32642578 96.74560547 184.51171875 C93.47691523 181.68098729 90.10992745 178.97192319 86.75390625 176.24609375 C81.80088406 172.2063948 76.90373149 168.0992799 72 164 C72.33 162.68 72.66 161.36 73 160 C74.77134867 160.11747164 76.54206179 160.24452298 78.3125 160.375 C79.29863281 160.44460937 80.28476563 160.51421875 81.30078125 160.5859375 C84.24570408 160.91556983 87.04979594 161.37083472 89.953125 161.93164062 C96.09329623 163.06096441 102.24677145 163.81379317 108.44921875 164.5078125 C109.58784866 164.63815887 110.72647858 164.76850525 111.89961243 164.90280151 C115.49519481 165.3136237 119.09132558 165.71939647 122.6875 166.125 C125.14261632 166.40461272 127.59769486 166.68455748 130.05273438 166.96484375 C136.03472495 167.64706638 142.01717263 168.32515725 148 169 C147.20690933 168.85362091 146.41381866 168.70724182 145.59669495 168.556427 C119.7160585 163.77917581 119.7160585 163.77917581 107.31616211 161.37988281 C103.3218352 160.61178796 99.3277711 159.87718513 95.3125 159.2265625 C84.75383852 157.51005098 74.70504483 155.63241511 66 149 C64.7934375 148.195625 64.7934375 148.195625 63.5625 147.375 C56.25607566 140.60319207 51.76008154 131.21359214 47.1875 122.5 C45.96994159 120.20379485 44.75118437 117.90822498 43.53125 115.61328125 C42.93699219 114.4938916 42.34273437 113.37450195 41.73046875 112.22119141 C38.89095406 106.9355598 35.93857125 101.71210858 32.93237305 96.51953125 C30.95592023 93.03670546 29.47231873 90.00309478 29 86 C34.3707532 85.20277882 37.69801457 87.95271954 42 90.75 C43.61025436 91.76576028 45.22230874 92.77867136 46.8359375 93.7890625 C47.67866211 94.31790039 48.52138672 94.84673828 49.38964844 95.39160156 C53.74201544 98.07336305 58.17944473 100.60169324 62.625 103.125 C63.51082764 103.62845947 64.39665527 104.13191895 65.30932617 104.65063477 C67.87110022 106.10360592 70.43501478 107.55270645 73 109 C73.73524902 109.41523926 74.47049805 109.83047852 75.22802734 110.25830078 C78.55868026 112.13814518 81.89245487 114.01216556 85.23046875 115.87890625 C87.6622849 117.24109599 90.08042628 118.62326967 92.48828125 120.02734375 C106.3011512 128.02515902 120.69424046 134.93792827 135 142 C133.66461182 141.24033936 133.66461182 141.24033936 132.30224609 140.46533203 C125.04004257 136.32845453 117.80979741 132.14532689 110.625 127.875 C108.71899135 126.74698792 106.81273235 125.61939878 104.90625 124.4921875 C103.93558594 123.91823242 102.96492188 123.34427734 101.96484375 122.75292969 C100.98644531 122.17446289 100.00804688 121.59599609 99 121 C98.02675781 120.42411133 97.05351563 119.84822266 96.05078125 119.25488281 C84.95599451 112.69987175 73.80975436 106.31263253 62.4375 100.25 C26.9321519 81.22907378 15.43917556 57.39990804 4.1015625 20.11328125 C-0.33122499 5.29959982 -0.33122499 5.29959982 0 0 Z " fill="#FE392E" transform="translate(24,51)"/>
<path d="M0 0 C1.875 0.125 1.875 0.125 4 1 C10.71694641 18.18237207 16.59502106 43.10089657 9.15625 60.71484375 C7.64942222 63.69286487 6.01397826 66.33867159 4 69 C1.8125 68.9375 1.8125 68.9375 -1 68 C-8.0655001 60.26159513 -9.3506791 50.9389851 -9.25170898 40.75878906 C-8.82769293 34.42692563 -7.5077666 28.32162944 -6.11914062 22.13989258 C-5.61927731 19.91199387 -5.14023037 17.68033715 -4.6640625 15.44726562 C-2.10063052 3.65684475 -2.10063052 3.65684475 0 0 Z " fill="#FE382D" transform="translate(254,392)"/>
<path d="M0 0 C1.86328125 0.1015625 1.86328125 0.1015625 4 1 C5.16796875 3.7109375 5.16796875 3.7109375 6.1875 7.375 C12.92223085 29.48347726 24.8382052 49.48135577 42 65 C41.505 66.485 41.505 66.485 41 68 C34.390396 69.78637946 27.63075276 68.73028061 21.5 65.80859375 C9.93940908 58.6418085 5.28678889 46.97683916 2.27978516 34.17529297 C0.2974611 25.33431036 -1.14864303 16.65324536 -1.125 7.5625 C-1.12757813 6.55316406 -1.13015625 5.54382813 -1.1328125 4.50390625 C-1 2 -1 2 0 0 Z " fill="#FE382D" transform="translate(261,374)"/>
<path d="M0 0 C1.32 0 2.64 0 4 0 C4.77590927 19.22530744 2.95310978 43.23459743 -10.34765625 58.33984375 C-16.74657037 64.76901278 -22.82331145 67.12095825 -31.66796875 68.08203125 C-34.27914694 67.99018076 -35.77479286 67.32489345 -38 66 C-37.44254904 62.44147743 -36.41464582 61.24832788 -33.5625 59.125 C-16.37775767 44.64554805 -8.60927029 19.90417577 0 0 Z " fill="#FE382D" transform="translate(247,375)"/>
<path d="M0 0 C-0.08047228 2.8165298 -0.47561721 4.48909749 -2.51953125 6.48046875 C-5.95445919 9.06208827 -5.95445919 9.06208827 -8 10 C-8.99 9.67 -9.98 9.34 -11 9 C-9.35 7.35 -7.7 5.7 -6 4 C-8.15146114 2.68019297 -8.15146114 2.68019297 -11.4375 3.5625 C-15 4 -15 4 -18 2 C-15.56421213 1.46969932 -13.12694025 0.95047688 -10.6875 0.4375 C-9.65206055 0.21030273 -9.65206055 0.21030273 -8.59570312 -0.02148438 C-5.24455934 -0.71761569 -3.30465928 -1.10155309 0 0 Z " fill="#FE3227" transform="translate(415,211)"/>
<path d="M0 0 C1.32 0.66 2.64 1.32 4 2 C-5.9 7.94 -5.9 7.94 -16 14 C-16.99 13.01 -17.98 12.02 -19 11 C-17.87980469 10.37351563 -16.75960938 9.74703125 -15.60546875 9.1015625 C-14.13277713 8.27610477 -12.66012282 7.45058046 -11.1875 6.625 C-10.44951172 6.2125 -9.71152344 5.8 -8.95117188 5.375 C-8.23896484 4.97539062 -7.52675781 4.57578125 -6.79296875 4.1640625 C-6.1383667 3.79748535 -5.48376465 3.4309082 -4.80932617 3.05322266 C-3.16823694 2.09793201 -1.5799656 1.0533104 0 0 Z " fill="#FF3026" transform="translate(383,170)"/>
<path d="M0 0 C1.32 0 2.64 0 4 0 C4.26554687 0.80824219 4.53109375 1.61648437 4.8046875 2.44921875 C5.15789063 3.51785156 5.51109375 4.58648437 5.875 5.6875 C6.39707031 7.27111328 6.39707031 7.27111328 6.9296875 8.88671875 C7.87343036 11.63183942 8.91757472 14.30781404 10 17 C10.75 19.6875 10.75 19.6875 11 22 C10.34 22.66 9.68 23.32 9 24 C5.49070196 16.11827559 2.19851951 8.36980236 0 0 Z " fill="#FE2D1D" transform="translate(33,86)"/>
<path d="M0 0 C2.25256041 1.0991772 4.50198174 2.20410211 6.75 3.3125 C7.38421875 3.62123047 8.0184375 3.92996094 8.671875 4.24804688 C12.04610816 5.91758932 15.02131482 7.71231612 18 10 C18.99 10.33 19.98 10.66 21 11 C21 11.66 21 12.32 21 13 C21.66 13 22.32 13 23 13 C23.33 14.32 23.66 15.64 24 17 C21.58105155 15.73336157 19.16486225 14.46188664 16.75 13.1875 C15.72712891 12.65286133 15.72712891 12.65286133 14.68359375 12.10742188 C11.24022952 10.2854476 8.03882741 8.46201294 5 6 C4.0925 5.319375 3.185 4.63875 2.25 3.9375 C1.5075 3.298125 0.765 2.65875 0 2 C0 1.34 0 0.68 0 0 Z " fill="#FE2D23" transform="translate(86,147)"/>
<path d="M0 0 C1.98 0.495 1.98 0.495 4 1 C4.66 3.97 5.32 6.94 6 10 C5.01 10.33 4.02 10.66 3 11 C2.67 13.31 2.34 15.62 2 18 C-1.07630166 14.6484503 -1.36027294 12.3631088 -1.25 7.875 C-1.23453125 6.82054687 -1.2190625 5.76609375 -1.203125 4.6796875 C-1 2 -1 2 0 0 Z " fill="#FE2A22" transform="translate(261,374)"/>
<path d="M0 0 C3.35991159 1.58861068 6.4368267 3.4927649 9.5625 5.5 C10.51253906 6.1084375 11.46257812 6.716875 12.44140625 7.34375 C14.30314242 8.54890441 16.15471227 9.76980818 18 11 C17.67 11.99 17.34 12.98 17 14 C12.84999494 12.51400561 9.36963518 10.47679376 5.6875 8.0625 C4.61886719 7.37285156 3.55023438 6.68320313 2.44921875 5.97265625 C1.64097656 5.32167969 0.83273438 4.67070312 0 4 C0 2.66666667 0 1.33333333 0 0 Z " fill="#FE2E22" transform="translate(60,131)"/>
<path d="M0 0 C2.03144641 0.93446535 4.03533587 1.93224776 6 3 C5.67 4.32 5.34 5.64 5 7 C-1.6 6.67 -8.2 6.34 -15 6 C-15 5.34 -15 4.68 -15 4 C-8.565 3.505 -8.565 3.505 -2 3 C-2 2.34 -2 1.68 -2 1 C-1.34 0.67 -0.68 0.34 0 0 Z " fill="#FE2E23" transform="translate(351,361)"/>
<path d="M0 0 C0.33 0.66 0.66 1.32 1 2 C-0.93626868 6.12216085 -3.32754579 8.28769296 -7.0625 10.8125 C-7.94035156 11.41707031 -8.81820312 12.02164062 -9.72265625 12.64453125 C-12 14 -12 14 -14 14 C-14.33 13.01 -14.66 12.02 -15 11 C-13.50146484 9.93458984 -13.50146484 9.93458984 -11.97265625 8.84765625 C-10.66923542 7.91932055 -9.36585193 6.99093243 -8.0625 6.0625 C-7.40314453 5.59392578 -6.74378906 5.12535156 -6.06445312 4.64257812 C-2.89795165 2.48544482 -2.89795165 2.48544482 0 0 Z " fill="#FE2F23" transform="translate(209,402)"/>
<path d="M0 0 C1.89709988 0.93493439 3.79262578 1.87306296 5.6875 2.8125 C6.74324219 3.33457031 7.79898438 3.85664063 8.88671875 4.39453125 C14.79485681 7.44126242 14.79485681 7.44126242 17 9 C17 9.99 17 10.98 17 12 C10.83643195 10.3341708 5.51740344 7.12194714 0 4 C0 2.68 0 1.36 0 0 Z " fill="#FE2E25" transform="translate(96,160)"/>
<path d="M0 0 C2.26096636 2.15362077 4.10839386 4.40974324 5.9375 6.9375 C8.10393723 9.87110454 10.31123189 12.51806021 13 15 C12.67 15.66 12.34 16.32 12 17 C7.36264094 15.616928 5.4267133 13.50990357 2.625 9.625 C1.56152344 8.19027344 1.56152344 8.19027344 0.4765625 6.7265625 C-1 4 -1 4 -0.7265625 1.6484375 C-0.36691406 0.83246094 -0.36691406 0.83246094 0 0 Z " fill="#FE2C23" transform="translate(79,182)"/>
<path d="M0 0 C0.33 0 0.66 0 1 0 C1.40406244 5.05078046 0.42777385 7.63121901 -2.375 11.8125 C-3.00148437 12.76769531 -3.62796875 13.72289062 -4.2734375 14.70703125 C-6 17 -6 17 -8 18 C-8.61474609 16.21582031 -8.61474609 16.21582031 -9 14 C-7.63226552 11.42749516 -6.25756074 9.14053537 -4.625 6.75 C-4.19960937 6.1003125 -3.77421875 5.450625 -3.3359375 4.78125 C-2.26111295 3.16221049 -1.13471968 1.57764 0 0 Z " fill="#FE3122" transform="translate(212,347)"/>
<path d="M0 0 C1.95720377 2.93580566 2.30195175 3.89822836 2.6328125 7.23046875 C2.71660156 8.03291016 2.80039063 8.83535156 2.88671875 9.66210938 C2.96535156 10.49548828 3.04398438 11.32886719 3.125 12.1875 C3.21136719 13.03248047 3.29773438 13.87746094 3.38671875 14.74804688 C3.5985739 16.83128923 3.80026777 18.91556042 4 21 C2.68 20.67 1.36 20.34 0 20 C0 13.4 0 6.8 0 0 Z " fill="#FF2B20" transform="translate(220,230)"/>
<path d="M0 0 C4.28577219 -0.36539443 6.34492062 0.51576402 9.8125 3 C10.60269531 3.556875 11.39289063 4.11375 12.20703125 4.6875 C12.79871094 5.120625 13.39039062 5.55375 14 6 C13.34 6.66 12.68 7.32 12 8 C11.46375 7.67 10.9275 7.34 10.375 7 C7.94928988 5.78925847 7.94928988 5.78925847 4.875 6.0625 C3.92625 6.041875 2.9775 6.02125 2 6 C0 3 0 3 0 0 Z " fill="#FE2D20" transform="translate(53,137)"/>
<path d="M0 0 C3.6383251 0.58703472 6.51118068 1.55723382 9.75 3.3125 C10.52859375 3.72113281 11.3071875 4.12976563 12.109375 4.55078125 C14 6 14 6 14.765625 8.16796875 C14.84296875 8.77253906 14.9203125 9.37710938 15 10 C11.34426939 8.62992438 8.04532353 6.98982135 4.6875 5 C3.80449219 4.484375 2.92148438 3.96875 2.01171875 3.4375 C1.34785156 2.963125 0.68398437 2.48875 0 2 C0 1.34 0 0.68 0 0 Z " fill="#FE2E25" transform="translate(79,152)"/>
<path d="M0 0 C2.31 0.66 4.62 1.32 7 2 C7.66 1.34 8.32 0.68 9 0 C9.33 2.97 9.66 5.94 10 9 C8.68 9 7.36 9 6 9 C4.296875 7.03125 4.296875 7.03125 2.75 4.5 C2.22921875 3.6646875 1.7084375 2.829375 1.171875 1.96875 C0.78515625 1.3190625 0.3984375 0.669375 0 0 Z " fill="#FE3125" transform="translate(183,313)"/>
<path d="M0 0 C2.99220268 1.36370299 5.29026529 2.94908083 7.75 5.125 C8.67039062 5.93324219 8.67039062 5.93324219 9.609375 6.7578125 C10.06828125 7.16773438 10.5271875 7.57765625 11 8 C10.67 8.66 10.34 9.32 10 10 C6.33939179 9.41463247 4.45464836 7.916761 1.75 5.4375 C1.04359375 4.79683594 0.3371875 4.15617188 -0.390625 3.49609375 C-0.92171875 3.00238281 -1.4528125 2.50867188 -2 2 C-1.34 1.34 -0.68 0.68 0 0 Z " fill="#FE2B22" transform="translate(110,223)"/>
<path d="M0 0 C1.32 0 2.64 0 4 0 C4 0.66 4 1.32 4 2 C6.31 2 8.62 2 11 2 C11 2.66 11 3.32 11 4 C6.92630576 6.03684712 4.41062136 6.0257259 0 5 C-0.5625 3.0625 -0.5625 3.0625 -1 1 C-0.67 0.67 -0.34 0.34 0 0 Z " fill="#FE2C21" transform="translate(210,437)"/>
<path d="M0 0 C3.79049707 1.42749981 7.27122456 3.16236542 10.8125 5.125 C12.27623047 5.93324219 12.27623047 5.93324219 13.76953125 6.7578125 C14.50558594 7.16773438 15.24164063 7.57765625 16 8 C15.01 9.485 15.01 9.485 14 11 C7.07 7.04 7.07 7.04 0 3 C0 2.01 0 1.02 0 0 Z " fill="#FE2B21" transform="translate(175,168)"/>
<path d="M0 0 C5.6626826 2.8313413 9.15619099 5.98756041 13 11 C8.05949541 10.56407312 5.62165711 8.23637444 2 5 C0.67508126 3.9888778 -0.65434813 2.98336098 -2 2 C-1.34 2 -0.68 2 0 2 C0 1.34 0 0.68 0 0 Z " fill="#FE2C24" transform="translate(266,166)"/>
<path d="M0 0 C1.32 0 2.64 0 4 0 C4.67756882 1.55780332 5.34159457 3.12150096 6 4.6875 C6.37125 5.55761719 6.7425 6.42773438 7.125 7.32421875 C8.01870488 10.0572002 8.16449676 12.14700934 8 15 C3.86232737 10.56677932 2.04471126 5.60120371 0 0 Z " fill="#FE2B20" transform="translate(291,357)"/>
<path d="M0 0 C3.10742423 1.46818668 5.90471739 3.20025 8.75 5.125 C9.94882813 5.93324219 9.94882813 5.93324219 11.171875 6.7578125 C11.77515625 7.16773437 12.3784375 7.57765625 13 8 C12.67 8.66 12.34 9.32 12 10 C8.644238 9.38024215 6.47736472 8.15537152 3.75 6.125 C3.04359375 5.61195312 2.3371875 5.09890625 1.609375 4.5703125 C0.81273438 3.79300781 0.81273438 3.79300781 0 3 C0 2.01 0 1.02 0 0 Z " fill="#FE3024" transform="translate(85,112)"/>
<path d="M0 0 C0.99 0.33 1.98 0.66 3 1 C2.54857225 2.77260631 2.08859477 4.5430368 1.625 6.3125 C1.36976563 7.29863281 1.11453125 8.28476563 0.8515625 9.30078125 C0 12 0 12 -2 15 C-3.1171875 13.359375 -3.1171875 13.359375 -4 11 C-3.3203125 8.203125 -3.3203125 8.203125 -2.125 5.25 C-1.73570312 4.26515625 -1.34640625 3.2803125 -0.9453125 2.265625 C-0.63335937 1.51796875 -0.32140625 0.7703125 0 0 Z " fill="#FF2E24" transform="translate(294,207)"/>
<path d="M0 0 C3.59391114 1.33488128 6.75490696 2.96022723 10 5 C8.02 5.99 8.02 5.99 6 7 C6 7.99 6 8.98 6 10 C5.01 9.67 4.02 9.34 3 9 C2.05078125 6.93359375 2.05078125 6.93359375 1.3125 4.4375 C1.06113281 3.61121094 0.80976563 2.78492188 0.55078125 1.93359375 C0.36902344 1.29550781 0.18726563 0.65742188 0 0 Z " fill="#FE2C23" transform="translate(230,344)"/>
<path d="M0 0 C0.33 0.99 0.66 1.98 1 3 C1.66 3 2.32 3 3 3 C3.33 2.01 3.66 1.02 4 0 C5.125 1.75 5.125 1.75 6 4 C5.125 6.25 5.125 6.25 4 8 C2.125 7.8125 2.125 7.8125 0 7 C-1.25 4.4375 -1.25 4.4375 -2 2 C-1.34 1.34 -0.68 0.68 0 0 Z " fill="#FE2B22" transform="translate(254,331)"/>
<path d="M0 0 C0.66 0 1.32 0 2 0 C2.13277344 0.60328125 2.26554687 1.2065625 2.40234375 1.828125 C2.57894531 2.62734375 2.75554687 3.4265625 2.9375 4.25 C3.19853516 5.43335938 3.19853516 5.43335938 3.46484375 6.640625 C3.9468783 8.98439853 3.9468783 8.98439853 4.75390625 11.109375 C4.83511719 11.73328125 4.91632813 12.3571875 5 13 C3.5625 14.75 3.5625 14.75 2 16 C1.47090114 13.71022755 0.95194981 11.41810812 0.4375 9.125 C0.14746094 7.84882813 -0.14257812 6.57265625 -0.44140625 5.2578125 C-1 2 -1 2 0 0 Z " fill="#FE3121" transform="translate(317,263)"/>
<path d="M0 0 C0.66 0 1.32 0 2 0 C2 5.94 2 11.88 2 18 C-0.92464806 12.15070388 -1.21457236 7.43717094 -1 1 C-0.67 0.67 -0.34 0.34 0 0 Z " fill="#FF3121" transform="translate(289,237)"/>
<path d="M0 0 C0.33 0.99 0.66 1.98 1 3 C-0.43570266 3.81567174 -1.87363434 4.62742093 -3.3125 5.4375 C-4.11300781 5.88996094 -4.91351563 6.34242188 -5.73828125 6.80859375 C-8 8 -8 8 -11 9 C-11.66 8.34 -12.32 7.68 -13 7 C-11.21190303 5.82786955 -9.41940875 4.66244474 -7.625 3.5 C-6.62726563 2.8503125 -5.62953125 2.200625 -4.6015625 1.53125 C-2 0 -2 0 0 0 Z " fill="#FE2E26" transform="translate(346,162)"/>
<path d="M0 0 C0.66 0.33 1.32 0.66 2 1 C-1.84919283 5.33034194 -5.72289646 7.6560756 -11 10 C-11.33 9.01 -11.66 8.02 -12 7 C-10.04754815 5.80285445 -8.08785003 4.61751926 -6.125 3.4375 C-5.03445313 2.77621094 -3.94390625 2.11492187 -2.8203125 1.43359375 C-1.88960938 0.96050781 -0.95890625 0.48742187 0 0 Z " fill="#FF3224" transform="translate(399,161)"/>
<path d="M0 0 C3.7910119 1.44950455 7.3874638 3.15172566 11 5 C11 5.66 11 6.32 11 7 C9.4375 7.75 9.4375 7.75 7 8 C4.49713591 6.86915563 2.32992278 5.47860484 0 4 C0 2.68 0 1.36 0 0 Z " fill="#FE2D24" transform="translate(278,433)"/>
<path d="M0 0 C1.98 0 3.96 0 6 0 C5.34 0.66 4.68 1.32 4 2 C5.32 3.65 6.64 5.3 8 7 C7.34 7 6.68 7 6 7 C5.67 7.66 5.34 8.32 5 9 C3.02 7.35 1.04 5.7 -1 4 C-0.67 2.68 -0.34 1.36 0 0 Z " fill="#FE261B" transform="translate(97,211)"/>
<path d="M0 0 C0.66 0.33 1.32 0.66 2 1 C1.01 1 0.02 1 -1 1 C-0.67 0.67 -0.34 0.34 0 0 Z M-4 4 C-4 6 -4 8 -4 10 C-7.50776784 11.60355101 -10.14354879 12.22036864 -14 12 C-14 11.34 -14 10.68 -14 10 C-13.44570312 9.73445313 -12.89140625 9.46890625 -12.3203125 9.1953125 C-11.59585938 8.84210938 -10.87140625 8.48890625 -10.125 8.125 C-9.40570313 7.77695312 -8.68640625 7.42890625 -7.9453125 7.0703125 C-5.84864981 6.03442457 -5.84864981 6.03442457 -4 4 Z " fill="#FE2F25" transform="translate(236,428)"/>
<path d="M0 0 C0.66 0.66 1.32 1.32 2 2 C1.01 2.66 0.02 3.32 -1 4 C-1 3.34 -1 2.68 -1 2 C-1.68707031 2.09539062 -2.37414062 2.19078125 -3.08203125 2.2890625 C-3.98308594 2.39992187 -4.88414062 2.51078125 -5.8125 2.625 C-6.70582031 2.74101562 -7.59914063 2.85703125 -8.51953125 2.9765625 C-11 3 -11 3 -14 1 C-4.28954847 -1.55983581 -4.28954847 -1.55983581 0 0 Z " fill="#FE271F" transform="translate(411,212)"/>
<path d="M0 0 C0.33 0.99 0.66 1.98 1 3 C-3.455 5.97 -3.455 5.97 -8 9 C-8.66 8.67 -9.32 8.34 -10 8 C-10 7.34 -10 6.68 -10 6 C-8.3203125 4.4921875 -8.3203125 4.4921875 -6.125 2.875 C-5.40570313 2.33617188 -4.68640625 1.79734375 -3.9453125 1.2421875 C-2 0 -2 0 0 0 Z " fill="#FE2E25" transform="translate(412,122)"/>
<path d="M0 0 C0.66 1.32 1.32 2.64 2 4 C0.90241493 4.84198307 -0.20335317 5.67330671 -1.3125 6.5 C-1.92738281 6.9640625 -2.54226563 7.428125 -3.17578125 7.90625 C-5 9 -5 9 -8 9 C-6.4169423 4.7257442 -3.49431596 2.73468206 0 0 Z " fill="#FE3026" transform="translate(398,224)"/>
<path d="M0 0 C0.33 0 0.66 0 1 0 C0.25 6.75 0.25 6.75 -2 9 C-3.31747324 9.69748583 -4.64914193 10.36959957 -6 11 C-4.74527195 6.50389116 -3.1520343 3.45706988 0 0 Z " fill="#FE2F25" transform="translate(451,147)"/>
<path d="M0 0 C6.70588235 3.41176471 6.70588235 3.41176471 8 6 C7.34 6.66 6.68 7.32 6 8 C4.66144944 7.21718695 3.32926356 6.42348123 2 5.625 C1.2575 5.18414062 0.515 4.74328125 -0.25 4.2890625 C-0.8275 3.86367187 -1.405 3.43828125 -2 3 C-2 2.34 -2 1.68 -2 1 C-1.34 0.67 -0.68 0.34 0 0 Z " fill="#FE2C22" transform="translate(329,242)"/>
<path d="M0 0 C0.99 0.33 1.98 0.66 3 1 C1.61198929 4.35435922 0.11371 6.11290303 -3 8 C-3.99 8 -4.98 8 -6 8 C-4.55746343 4.63408134 -2.66735273 2.48952921 0 0 Z " fill="#FF2F23" transform="translate(449,131)"/>
<path d="M0 0 C0.99 0.66 1.98 1.32 3 2 C1.90931332 5.77545388 1.0916909 8.47043472 -2 11 C-3.14947895 7.44706507 -3.0868937 6.20023331 -1.5625 2.6875 C-1.046875 1.800625 -0.53125 0.91375 0 0 Z " fill="#FE2B24" transform="translate(349,278)"/>
<path d="M0 0 C0.99 0.99 1.98 1.98 3 3 C-0.63 4.32 -4.26 5.64 -8 7 C-8.33 6.01 -8.66 5.02 -9 4 C-6.36 3.67 -3.72 3.34 -1 3 C-0.67 2.01 -0.34 1.02 0 0 Z " fill="#FE2D24" transform="translate(193,361)"/>
<path d="M0 0 C0.66 0.33 1.32 0.66 2 1 C1.3503125 1.5878125 1.3503125 1.5878125 0.6875 2.1875 C-1.1287076 4.00599296 -1.1287076 4.00599296 -2.5 6.5625 C-4 9 -4 9 -7 11 C-7.66 10.34 -8.32 9.68 -9 9 C-6.03 6.03 -3.06 3.06 0 0 Z " fill="#FF2B21" transform="translate(285,332)"/>
<path d="M0 0 C-1 3 -1 3 -3.25 4.75 C-6.41076857 6.18671298 -7.74770785 6.02214896 -11 5 C-4.87096774 0 -4.87096774 0 0 0 Z " fill="#FE2D24" transform="translate(386,140)"/>
<path d="M0 0 C0.66 0.33 1.32 0.66 2 1 C2 1.99 2 2.98 2 4 C-5.92 3.67 -13.84 3.34 -22 3 C-22 2.67 -22 2.34 -22 2 C-14.74 2 -7.48 2 0 2 C0 1.34 0 0.68 0 0 Z " fill="#FE1F14" transform="translate(329,421)"/>
<path d="M0 0 C0.66 0.33 1.32 0.66 2 1 C1.67 2.32 1.34 3.64 1 5 C-5.6 4.67 -12.2 4.34 -19 4 C-19 3.67 -19 3.34 -19 3 C-12.73 2.67 -6.46 2.34 0 2 C0 1.34 0 0.68 0 0 Z " fill="#FE2218" transform="translate(355,363)"/>
<path d="M0 0 C0.625 1.875 0.625 1.875 1 4 C-1.5654594 6.5654594 -3.47686668 6.54046087 -7 7 C-7 6.01 -7 5.02 -7 4 C-2.65714286 0 -2.65714286 0 0 0 Z " fill="#FE2C21" transform="translate(279,345)"/>
<path d="M0 0 C0 1.32 0 2.64 0 4 C-3.465 5.485 -3.465 5.485 -7 7 C-7.66 6.34 -8.32 5.68 -9 5 C-7.87926138 4.16094435 -6.75325453 3.32892169 -5.625 2.5 C-4.99851562 2.0359375 -4.37203125 1.571875 -3.7265625 1.09375 C-2 0 -2 0 0 0 Z " fill="#FF2C23" transform="translate(438,140)"/>
<path d="M0 0 C3.91841827 1.30613942 6.32640809 2.83129848 9 6 C9 6.66 9 7.32 9 8 C5.08158173 6.69386058 2.67359191 5.16870152 0 2 C0 1.34 0 0.68 0 0 Z " fill="#FE2A21" transform="translate(99,122)"/>
<path d="M0 0 C0.99 0.99 1.98 1.98 3 3 C2.34 4.32 1.68 5.64 1 7 C0.01 6.34 -0.98 5.68 -2 5 C-1.34 3.35 -0.68 1.7 0 0 Z M-1 7 C-0.67 7 -0.34 7 0 7 C0 10.3 0 13.6 0 17 C-0.33 17 -0.66 17 -1 17 C-1 13.7 -1 10.4 -1 7 Z " fill="#FE2C22" transform="translate(268,355)"/>
<path d="M0 0 C0.99 0.66 1.98 1.32 3 2 C1.68 4.31 0.36 6.62 -1 9 C-1.99 8.67 -2.98 8.34 -4 8 C-2.87548273 5.0280615 -1.77706209 2.66559313 0 0 Z " fill="#FE2C22" transform="translate(163,258)"/>
<path d="M0 0 C0.99 0.66 1.98 1.32 3 2 C0.12835434 4.70272533 -1.30991841 5.94791837 -5.3125 6.25 C-6.199375 6.1675 -7.08625 6.085 -8 6 C-5.38485683 3.87961365 -2.80362384 1.86908256 0 0 Z " fill="#FE2D22" transform="translate(450,139)"/>
<path d="M0 0 C0.99 0.66 1.98 1.32 3 2 C2.34 4.64 1.68 7.28 1 10 C0.01 9.67 -0.98 9.34 -2 9 C-1.34 6.03 -0.68 3.06 0 0 Z " fill="#FE2E26" transform="translate(221,353)"/>
<path d="M0 0 C0.99 0.33 1.98 0.66 3 1 C1.35 3.64 -0.3 6.28 -2 9 C-2.99 8.34 -3.98 7.68 -5 7 C-3.35 4.69 -1.7 2.38 0 0 Z " fill="#FE2E26" transform="translate(207,346)"/>
<path d="M0 0 C0 0.99 0 1.98 0 3 C-3.48712375 6.48712375 -6.03741909 8.31075265 -11 9 C-7.56638098 5.36440339 -4.2026393 2.63886654 0 0 Z " fill="#FE2B26" transform="translate(184,240)"/>
<path d="M0 0 C1.32 0 2.64 0 4 0 C4.33 0.66 4.66 1.32 5 2 C5.99 2.33 6.98 2.66 8 3 C7.34 3 6.68 3 6 3 C6 3.66 6 4.32 6 5 C4.02 5 2.04 5 0 5 C0 3.35 0 1.7 0 0 Z " fill="#FF2D24" transform="translate(319,219)"/>
<path d="M0 0 C0.99 0.33 1.98 0.66 3 1 C4.6875 4.5625 4.6875 4.5625 6 8 C5.34 8 4.68 8 4 8 C3.67 8.66 3.34 9.32 3 10 C0.96564469 6.27034861 0 4.33094958 0 0 Z " fill="#FE2A20" transform="translate(72,171)"/>
<path d="M0 0 C0.33 1.32 0.66 2.64 1 4 C-1.52053595 5.26026798 -2.8542098 4.91874445 -5.625 4.5625 C-6.85089844 4.40974609 -6.85089844 4.40974609 -8.1015625 4.25390625 C-9.04128906 4.12822266 -9.04128906 4.12822266 -10 4 C-6.74469192 2.31573191 -3.49529294 1.11213866 0 0 Z " fill="#FE241B" transform="translate(238,166)"/>
<path d="M0 0 C0.99 0 1.98 0 3 0 C1.80100302 3.0831351 0.52299523 6.06279492 -1 9 C-1.99 9 -2.98 9 -4 9 C-2.80100302 5.9168649 -1.52299523 2.93720508 0 0 Z " fill="#FE3026" transform="translate(466,110)"/>
<path d="M0 0 C0.33 0.66 0.66 1.32 1 2 C-2.01887244 5.48331435 -4.56909529 6.79157144 -9 8 C-7.50164772 3.33845958 -4.11536409 2.13389249 0 0 Z " fill="#FE2E26" transform="translate(326,173)"/>
<path d="M0 0 C1 3 1 3 0.3125 5.0625 C-1.21259665 7.31383315 -2.50584728 8.00233891 -5 9 C-4.42647107 5.12867972 -2.51295648 2.91827204 0 0 Z " fill="#FE2D23" transform="translate(197,334)"/>
<path d="M0 0 C0.99 0.33 1.98 0.66 3 1 C1.125 6.75 1.125 6.75 0 9 C-0.99 8.67 -1.98 8.34 -3 8 C-1.125 2.25 -1.125 2.25 0 0 Z " fill="#FF2B22" transform="translate(209,242)"/>
<path d="M0 0 C3.91211733 1.15585285 6.8745041 2.35534962 10 5 C8.3125 5.6875 8.3125 5.6875 6 6 C3.3125 4.75 3.3125 4.75 1 3 C0.67 2.01 0.34 1.02 0 0 Z " fill="#FE2D24" transform="translate(114,164)"/>
<path d="M0 0 C0.33 0 0.66 0 1 0 C1.3125 2.1875 1.3125 2.1875 1 5 C-1.5 7.8125 -1.5 7.8125 -4 10 C-4.66 9.34 -5.32 8.68 -6 8 C-5.02471263 6.66382648 -4.04466681 5.3311249 -3.0625 4 C-2.24458984 2.88625 -2.24458984 2.88625 -1.41015625 1.75 C-0.94480469 1.1725 -0.47945313 0.595 0 0 Z " fill="#FE2F22" transform="translate(479,56)"/>
<path d="M0 0 C3.82097239 0.53069061 6.06171403 1.49701566 9 4 C6.75 4.6875 6.75 4.6875 4 5 C1.6875 3.6875 1.6875 3.6875 0 2 C0 1.34 0 0.68 0 0 Z " fill="#FE2D25" transform="translate(146,152)"/>
<path d="M0 0 C4.92307692 4.30769231 4.92307692 4.30769231 5.3125 7.8125 C5.209375 8.534375 5.10625 9.25625 5 10 C1.91910327 7.22719294 0.31224548 4.93673644 -1 1 C-0.67 0.67 -0.34 0.34 0 0 Z " fill="#FE2D22" transform="translate(48,117)"/>
<path d="M0 0 C0.66 0.99 1.32 1.98 2 3 C0.35 4.32 -1.3 5.64 -3 7 C-3.99 6.34 -4.98 5.68 -6 5 C-4.02 3.35 -2.04 1.7 0 0 Z " fill="#FE281F" transform="translate(222,414)"/>
<path d="M0 0 C0.99 0 1.98 0 3 0 C3 2.64 3 5.28 3 8 C2.34 8 1.68 8 1 8 C-0.35439668 5.29120665 -0.06501451 2.99066732 0 0 Z " fill="#FE2E24" transform="translate(158,268)"/>
<path d="M0 0 C2.31 0.33 4.62 0.66 7 1 C7 1.66 7 2.32 7 3 C4.36 3.33 1.72 3.66 -1 4 C-0.67 2.68 -0.34 1.36 0 0 Z " fill="#FF2C20" transform="translate(336,216)"/>
<path d="M0 0 C2.91517292 1.07401108 4.77810176 1.77810176 7 4 C6.01 4.66 5.02 5.32 4 6 C2 4.6875 2 4.6875 0 3 C0 2.01 0 1.02 0 0 Z " fill="#FF2C21" transform="translate(138,177)"/>
<path d="M0 0 C0.99 0 1.98 0 3 0 C5.1875 3 5.1875 3 7 6 C6.34 6.66 5.68 7.32 5 8 C0 2.25 0 2.25 0 0 Z " fill="#FE2A20" transform="translate(32,60)"/>
<path d="M0 0 C2.91517292 1.07401108 4.77810176 1.77810176 7 4 C6.67 4.66 6.34 5.32 6 6 C3.5625 5.25 3.5625 5.25 1 4 C0.1875 1.875 0.1875 1.875 0 0 Z " fill="#FE3222" transform="translate(165,162)"/>
<path d="M0 0 C0.66 0.66 1.32 1.32 2 2 C-0.97 4.475 -0.97 4.475 -4 7 C-4.66 6.67 -5.32 6.34 -6 6 C-4.75453595 2.26360784 -3.36595047 1.81243487 0 0 Z " fill="#FF2D24" transform="translate(418,150)"/>
<path d="M0 0 C-0.1875 1.8125 -0.1875 1.8125 -1 4 C-3.5625 5.75 -3.5625 5.75 -6 7 C-5.6875 4.625 -5.6875 4.625 -5 2 C-2 0 -2 0 0 0 Z " fill="#FE2E26" transform="translate(429,110)"/>
<path d="M0 0 C0.33 0.66 0.66 1.32 1 2 C1.66 2.33 2.32 2.66 3 3 C2.01 4.98 1.02 6.96 0 9 C-0.66 8.01 -1.32 7.02 -2 6 C-1.125 2.8125 -1.125 2.8125 0 0 Z " fill="#FE2C23" transform="translate(215,330)"/>
<path d="M0 0 C2.97 0.33 5.94 0.66 9 1 C5.5647952 3.29013653 4.014669 3.17842973 0 3 C0 2.01 0 1.02 0 0 Z " fill="#FF261F" transform="translate(360,212)"/>
<path d="M0 0 C0.66 0.99 1.32 1.98 2 3 C0.68 5.31 -0.64 7.62 -2 10 C-2.33 10 -2.66 10 -3 10 C-2.25 3.375 -2.25 3.375 0 0 Z " fill="#FE3123" transform="translate(303,191)"/>
<path d="M0 0 C1.98 0.66 3.96 1.32 6 2 C5.01 2.99 4.02 3.98 3 5 C1.35 4.01 -0.3 3.02 -2 2 C-1.34 1.34 -0.68 0.68 0 0 Z " fill="#FE2B1F" transform="translate(127,171)"/>
<path d="M0 0 C0.99 0.33 1.98 0.66 3 1 C4.1875 3.5625 4.1875 3.5625 5 6 C4.34 6 3.68 6 3 6 C2.67 6.66 2.34 7.32 2 8 C0 2.25 0 2.25 0 0 Z " fill="#FE291E" transform="translate(67,162)"/>
<path d="M0 0 C1.32 0 2.64 0 4 0 C4.33 1.65 4.66 3.3 5 5 C4.01 5.66 3.02 6.32 2 7 C1.34 4.69 0.68 2.38 0 0 Z " fill="#FE2920" transform="translate(27,67)"/>
<path d="M0 0 C0.66 0 1.32 0 2 0 C2 1.98 2 3.96 2 6 C0.68 6 -0.64 6 -2 6 C-1.49396008 3.83125748 -1.00016187 2.00032373 0 0 Z " fill="#FE2E1D" transform="translate(320,316)"/>
<path d="M0 0 C1.32 0 2.64 0 4 0 C4.33 1.65 4.66 3.3 5 5 C4.34 5 3.68 5 3 5 C2.67 5.66 2.34 6.32 2 7 C1.34 4.69 0.68 2.38 0 0 Z " fill="#FE3221" transform="translate(242,303)"/>
<path d="M0 0 C2.35953094 2.35953094 2.49141413 3.77895617 3 7 C2.01 7.33 1.02 7.66 0 8 C-0.66 5.69 -1.32 3.38 -2 1 C-1.34 0.67 -0.68 0.34 0 0 Z " fill="#FE2C25" transform="translate(216,207)"/>
<path d="M0 0 C-0.33 0.66 -0.66 1.32 -1 2 C-4.64653273 3.11421833 -7.33291043 2.94296589 -11 2 C-6.99642627 -0.14477164 -4.43233175 -1.47744392 0 0 Z " fill="#FF2E20" transform="translate(410,205)"/>
<path d="M0 0 C0.66 0.33 1.32 0.66 2 1 C1.25 5.75 1.25 5.75 -1 8 C-1 7.34 -1 6.68 -1 6 C-1.66 5.67 -2.32 5.34 -3 5 C-2.01 3.35 -1.02 1.7 0 0 Z " fill="#FF2A20" transform="translate(440,166)"/>
<path d="M0 0 C3.37503669 1.1858237 5.64722731 2.27573689 8 5 C7.01 5.495 7.01 5.495 6 6 C3.96166576 4.7260411 1.96147874 3.38938077 0 2 C0 1.34 0 0.68 0 0 Z " fill="#FE2B22" transform="translate(114,132)"/>
<path d="M0 0 C1.65 1.65 3.3 3.3 5 5 C3.68 5 2.36 5 1 5 C0.34 3.68 -0.32 2.36 -1 1 C-0.67 0.67 -0.34 0.34 0 0 Z " fill="#FE261F" transform="translate(294,431)"/>
<path d="M0 0 C0.66 0 1.32 0 2 0 C2.99 1.98 3.98 3.96 5 6 C4.01 6.495 4.01 6.495 3 7 C2.34 6.67 1.68 6.34 1 6 C0.375 2.9375 0.375 2.9375 0 0 Z " fill="#FE2D25" transform="translate(283,418)"/>
<path d="M0 0 C0.66 0 1.32 0 2 0 C2 0.66 2 1.32 2 2 C3.32 2.33 4.64 2.66 6 3 C5.67 3.99 5.34 4.98 5 6 C3.02 5.01 1.04 4.02 -1 3 C-0.67 2.01 -0.34 1.02 0 0 Z " fill="#FE2A22" transform="translate(292,417)"/>
<path d="M0 0 C0.66 1.32 1.32 2.64 2 4 C-0.95664519 5.4783226 -3.74229737 5.06032783 -7 5 C-4.66785852 3.79371992 -2.50357861 2.8345262 0 2 C0 1.34 0 0.68 0 0 Z " fill="#FE231D" transform="translate(327,380)"/>
<path d="M0 0 C1.65 1.32 3.3 2.64 5 4 C4.67 4.66 4.34 5.32 4 6 C1.5625 5.1875 1.5625 5.1875 -1 4 C-1.33 3.01 -1.66 2.02 -2 1 C-1.34 0.67 -0.68 0.34 0 0 Z " fill="#FF2C24" transform="translate(205,313)"/>
<path d="M0 0 C0.66 0 1.32 0 2 0 C1.67 0.99 1.34 1.98 1 3 C0.67 2.01 0.34 1.02 0 0 Z M-2 3 C-1.01 3.33 -0.02 3.66 1 4 C0.34 5.32 -0.32 6.64 -1 8 C-1.66 7.67 -2.32 7.34 -3 7 C-2.67 5.68 -2.34 4.36 -2 3 Z " fill="#FE2E25" transform="translate(281,301)"/>
<path d="M0 0 C0.33 0.66 0.66 1.32 1 2 C1.66 2.33 2.32 2.66 3 3 C2.34 4.65 1.68 6.3 1 8 C0.01 7.67 -0.98 7.34 -2 7 C-1.34 4.69 -0.68 2.38 0 0 Z " fill="#FF2F22" transform="translate(205,250)"/>
<path d="M0 0 C0.33 0 0.66 0 1 0 C1.33 3.3 1.66 6.6 2 10 C1.01 10 0.02 10 -1 10 C-0.67 6.7 -0.34 3.4 0 0 Z " fill="#FE4534" transform="translate(288,246)"/>
<path d="M0 0 C0.99 0.495 0.99 0.495 2 1 C2 1.99 2 2.98 2 4 C2.99 4.33 3.98 4.66 5 5 C4.34 6.32 3.68 7.64 3 9 C0 3.375 0 3.375 0 0 Z " fill="#FF3126" transform="translate(304,239)"/>
<path d="M0 0 C0.66 0.33 1.32 0.66 2 1 C1.67 1.99 1.34 2.98 1 4 C-1.375 4.625 -1.375 4.625 -4 5 C-4.66 4.34 -5.32 3.68 -6 3 C-4.03533587 1.93224776 -2.03144641 0.93446535 0 0 Z " fill="#FF2E24" transform="translate(174,238)"/>
<path d="M0 0 C1.875 0.3125 1.875 0.3125 4 1 C4.66 1.99 5.32 2.98 6 4 C5.01 4.66 4.02 5.32 3 6 C0 2.25 0 2.25 0 0 Z " fill="#FE251C" transform="translate(46,77)"/>
<path d="M0 0 C1.32 1.65 2.64 3.3 4 5 C3.01 5.66 2.02 6.32 1 7 C0.34 6.34 -0.32 5.68 -1 5 C-0.625 2.375 -0.625 2.375 0 0 Z " fill="#FE2A23" transform="translate(307,355)"/>
<path d="M0 0 C2.475 0.495 2.475 0.495 5 1 C4.67 1.99 4.34 2.98 4 4 C3.01 4.33 2.02 4.66 1 5 C0.67 3.35 0.34 1.7 0 0 Z " fill="#FE2B24" transform="translate(258,355)"/>
<path d="M0 0 C0.99 0.66 1.98 1.32 3 2 C1.35 3.32 -0.3 4.64 -2 6 C-2 2 -2 2 0 0 Z " fill="#FF4137" transform="translate(274,344)"/>
<path d="M0 0 C0.66 0 1.32 0 2 0 C1.67 2.31 1.34 4.62 1 7 C0.34 7 -0.32 7 -1 7 C-1.625 4.625 -1.625 4.625 -2 2 C-1.34 1.34 -0.68 0.68 0 0 Z " fill="#FE2E23" transform="translate(284,288)"/>
<path d="M0 0 C0.99 0.33 1.98 0.66 3 1 C1.515 3.475 1.515 3.475 0 6 C-0.66 5.67 -1.32 5.34 -2 5 C-1.125 1.125 -1.125 1.125 0 0 Z " fill="#FE2C24" transform="translate(470,68)"/>
</svg>
